<svg id="svg" version="1.1" xmlns="http://www.w3.org/2000/svg" xmlns:xlink="http://www.w3.org/1999/xlink" width="400" height="400" viewBox="0, 0, 400,400"><g id="svgg"><path id="path0" d="M151.390 27.000 L 151.400 43.000 135.306 43.105 L 119.213 43.209 119.100 32.305 C 119.008 23.458,118.969 24.476,118.893 37.700 L 118.800 54.000 102.800 54.000 L 86.800 54.000 86.800 48.533 C 86.800 45.527,86.707 43.160,86.593 43.274 C 86.479 43.388,86.386 48.278,86.386 54.140 L 86.386 64.800 81.204 64.800 L 76.023 64.800 75.899 59.300 L 75.775 53.800 75.688 59.300 L 75.600 64.800 70.200 64.800 L 64.800 64.800 64.800 70.200 L 64.800 75.600 54.000 75.600 L 43.200 75.600 43.200 86.389 L 43.200 97.177 37.700 97.301 L 32.200 97.425 37.700 97.512 L 43.200 97.600 43.200 102.800 L 43.200 108.000 32.300 108.088 C 26.305 108.136,23.875 108.231,26.900 108.299 L 32.400 108.423 32.400 119.011 L 32.400 129.600 21.500 129.688 C 15.505 129.736,13.075 129.831,16.100 129.899 L 21.600 130.023 21.600 167.823 L 21.600 205.623 27.100 205.511 L 32.600 205.400 32.707 194.712 L 32.813 184.023 38.107 183.912 L 43.400 183.800 43.512 178.505 L 43.623 173.209 59.712 173.105 L 75.800 173.000 75.912 167.707 L 76.023 162.413 86.712 162.307 L 97.400 162.200 97.512 156.903 L 97.623 151.607 119.112 151.503 L 140.600 151.400 140.712 146.100 L 140.823 140.800 205.400 140.800 L 269.977 140.800 270.088 146.100 L 270.200 151.400 286.500 151.504 L 302.800 151.609 302.800 157.004 L 302.800 162.400 313.600 162.400 L 324.400 162.400 324.400 167.800 L 324.400 173.200 340.600 173.200 L 356.800 173.200 356.800 178.600 L 356.800 184.000 362.200 184.000 L 367.600 184.000 367.600 194.800 L 367.600 205.600 372.800 205.600 L 378.000 205.600 378.000 167.812 L 378.000 130.023 372.700 129.912 L 367.400 129.800 367.293 119.112 L 367.187 108.423 361.893 108.312 L 356.600 108.200 356.488 102.907 L 356.377 97.613 345.688 97.507 L 335.000 97.400 334.893 86.712 L 334.787 76.023 329.493 75.912 L 324.200 75.800 324.088 70.512 L 323.977 65.223 318.688 65.112 L 313.400 65.000 313.289 59.763 L 313.178 54.526 305.325 54.263 C 301.005 54.118,293.810 54.000,289.336 54.000 L 281.200 54.000 281.200 48.612 L 281.200 43.223 286.300 43.112 C 289.105 43.050,281.815 43.072,270.100 43.161 L 248.800 43.322 248.712 26.961 C 248.664 17.962,248.569 13.075,248.501 16.100 L 248.377 21.600 200.000 21.600 L 151.623 21.600 151.501 16.300 C 151.434 13.385,151.384 18.200,151.390 27.000 M313.358 48.600 C 313.358 51.680,313.421 52.887,313.497 51.282 C 313.573 49.678,313.573 47.158,313.496 45.682 C 313.419 44.207,313.357 45.520,313.358 48.600 M151.200 59.400 L 151.200 64.800 145.800 64.800 L 140.400 64.800 140.400 75.600 L 140.400 86.400 129.600 86.400 L 118.800 86.400 118.800 91.800 L 118.800 97.200 108.000 97.200 L 97.200 97.200 97.200 102.600 L 97.200 108.000 91.797 108.000 L 86.393 108.000 86.497 86.500 L 86.600 65.000 91.900 64.888 L 97.200 64.777 97.200 59.595 L 97.200 54.413 108.300 54.300 C 114.405 54.238,126.555 54.145,135.300 54.093 L 151.200 54.000 151.200 59.400 M324.182 59.499 L 324.200 65.000 329.488 65.112 L 334.777 65.223 334.888 70.512 L 335.000 75.800 346.000 75.810 L 357.000 75.820 346.100 75.704 L 335.200 75.587 335.200 70.194 L 335.200 64.800 329.811 64.800 L 324.423 64.800 324.294 59.399 L 324.165 53.999 324.182 59.499 M162.000 75.600 L 162.000 86.400 156.800 86.400 L 151.600 86.400 151.600 75.600 L 151.600 64.800 156.800 64.800 L 162.000 64.800 162.000 75.600 M75.600 70.400 L 75.600 75.600 70.400 75.600 L 65.200 75.600 65.200 70.400 L 65.200 65.200 70.400 65.200 L 75.600 65.200 75.600 70.400 M64.800 86.600 L 64.800 97.200 54.200 97.200 L 43.600 97.200 43.600 86.600 L 43.600 76.000 54.200 76.000 L 64.800 76.000 64.800 86.600 M75.512 102.700 L 75.623 108.000 70.212 108.000 L 64.800 108.000 64.800 102.867 C 64.800 96.654,64.300 97.154,70.378 97.289 L 75.400 97.400 75.512 102.700 M359.282 97.496 C 360.758 97.573,363.278 97.573,364.882 97.497 C 366.487 97.421,365.280 97.358,362.200 97.358 C 359.120 97.357,357.807 97.419,359.282 97.496 M370.082 108.296 C 371.558 108.373,374.078 108.373,375.682 108.297 C 377.287 108.221,376.080 108.158,373.000 108.158 C 369.920 108.157,368.607 108.219,370.082 108.296 M380.882 129.896 C 382.358 129.973,384.878 129.973,386.482 129.897 C 388.087 129.821,386.880 129.758,383.800 129.758 C 380.720 129.757,379.407 129.819,380.882 129.896 M129.867 162.267 C 129.720 162.413,129.600 164.838,129.600 167.655 L 129.600 172.777 124.300 172.888 L 119.000 173.000 118.888 178.294 L 118.777 183.587 129.688 183.694 L 140.600 183.800 140.711 189.051 L 140.823 194.302 151.411 194.597 L 162.000 194.891 162.000 200.034 L 162.000 205.177 167.500 205.289 L 173.000 205.400 173.112 210.700 L 173.223 216.000 178.400 216.000 L 183.577 216.000 183.688 210.700 L 183.800 205.400 189.100 205.288 L 194.400 205.177 194.400 215.982 L 194.400 226.787 183.700 226.893 L 173.000 227.000 172.888 232.300 L 172.777 237.600 167.388 237.600 L 162.000 237.600 162.000 232.400 L 162.000 227.200 156.811 227.200 L 151.623 227.200 151.511 221.700 L 151.400 216.200 146.112 216.088 L 140.823 215.977 140.712 210.688 L 140.600 205.400 129.912 205.293 L 119.223 205.187 119.112 199.893 L 119.000 194.600 113.600 194.600 L 108.200 194.600 108.096 210.900 L 107.991 227.200 113.496 227.113 L 119.000 227.025 113.700 226.901 L 108.400 226.777 108.400 210.788 L 108.400 194.800 113.600 194.800 L 118.800 194.800 118.800 200.200 L 118.800 205.600 129.588 205.600 L 140.377 205.600 140.488 210.900 L 140.600 216.200 145.851 216.311 L 151.102 216.423 151.395 226.967 L 151.688 237.512 162.244 237.805 L 172.800 238.098 172.800 243.249 L 172.800 248.400 156.600 248.400 L 140.400 248.400 140.400 243.249 L 140.400 238.098 129.779 237.803 C 123.938 237.641,119.048 237.619,118.913 237.754 C 118.777 237.889,121.127 238.000,124.133 238.000 L 129.600 238.000 129.600 243.188 L 129.600 248.377 124.300 248.488 L 119.000 248.600 118.893 259.300 L 118.787 270.000 113.600 270.000 L 108.413 270.000 108.307 259.300 L 108.200 248.600 81.200 248.596 L 54.200 248.592 81.100 248.699 L 108.000 248.806 108.000 259.391 L 108.000 269.977 102.700 270.088 L 97.400 270.200 97.200 275.700 C 97.090 278.725,97.100 283.675,97.222 286.700 C 97.400 291.100,97.460 290.020,97.522 281.300 L 97.600 270.400 102.822 270.400 L 108.043 270.400 107.922 275.763 C 107.855 278.712,107.935 281.042,108.100 280.939 C 108.265 280.837,108.400 278.429,108.400 275.588 L 108.400 270.423 113.700 270.312 L 119.000 270.200 119.107 259.500 L 119.213 248.800 124.607 248.800 L 130.000 248.800 130.000 253.955 L 130.000 259.109 140.500 259.381 C 146.275 259.531,155.950 259.596,162.000 259.526 L 173.000 259.400 173.112 254.112 L 173.223 248.823 178.512 248.712 L 183.800 248.600 183.800 243.200 L 183.800 237.800 178.500 237.688 L 173.200 237.577 173.200 232.388 L 173.200 227.200 184.000 227.200 L 194.800 227.200 194.800 216.400 L 194.800 205.600 200.000 205.600 L 205.200 205.600 205.200 216.400 L 205.200 227.200 210.588 227.200 L 215.977 227.200 216.088 232.500 L 216.200 237.800 221.488 237.912 L 226.777 238.023 226.888 243.312 L 227.000 248.600 232.288 248.712 L 237.577 248.823 237.688 254.112 L 237.800 259.400 254.100 259.504 L 270.400 259.609 270.400 254.204 L 270.400 248.800 275.600 248.800 L 280.800 248.800 280.800 259.600 L 280.800 270.400 286.153 270.400 L 291.505 270.400 291.800 281.200 L 292.095 292.000 297.247 292.000 L 302.400 292.000 302.400 318.800 L 302.400 345.600 291.800 345.600 L 281.200 345.600 281.200 340.412 L 281.200 335.223 286.500 335.112 L 291.800 335.000 291.907 324.300 L 292.013 313.600 286.656 313.600 L 281.299 313.600 281.002 334.989 L 280.705 356.377 275.452 356.489 L 270.200 356.600 270.088 361.900 L 269.977 367.200 205.400 367.200 L 140.824 367.200 140.712 362.100 L 140.600 357.000 135.200 356.890 L 129.800 356.779 129.879 362.290 C 129.923 365.320,129.968 372.615,129.979 378.500 L 130.000 389.200 135.300 389.200 L 140.600 389.200 140.600 378.500 L 140.600 367.800 205.294 367.699 L 269.987 367.598 270.100 378.499 C 270.192 387.339,270.231 386.318,270.307 373.100 L 270.400 356.800 275.822 356.800 L 281.243 356.800 281.122 362.211 L 281.000 367.623 286.400 367.511 L 291.800 367.400 291.663 356.700 L 291.526 346.000 296.952 346.000 L 302.377 346.000 302.501 351.500 C 302.569 354.525,302.664 342.285,302.712 324.300 L 302.800 291.600 307.997 291.600 L 313.194 291.600 313.300 318.900 L 313.406 346.200 313.503 313.700 L 313.600 281.200 308.211 281.200 L 302.823 281.200 302.711 275.700 L 302.600 270.200 297.300 270.088 L 292.000 269.977 292.000 259.391 L 292.000 248.806 319.000 248.699 L 346.000 248.592 318.900 248.596 L 291.800 248.600 291.693 259.300 L 291.587 270.000 286.400 270.000 L 281.213 270.000 281.107 259.300 L 281.000 248.600 259.500 248.497 L 238.000 248.393 238.000 243.208 L 238.000 238.023 243.300 237.912 L 248.600 237.800 248.707 227.112 L 248.813 216.423 254.107 216.312 L 259.400 216.200 259.512 210.900 L 259.623 205.600 270.412 205.600 L 281.200 205.600 281.200 200.200 L 281.200 194.800 286.400 194.800 L 291.600 194.800 291.600 210.788 L 291.600 226.777 286.300 226.901 L 281.000 227.025 286.504 227.113 L 292.009 227.200 291.904 210.900 L 291.800 194.600 286.400 194.600 L 281.000 194.600 280.888 199.893 L 280.777 205.187 270.088 205.293 L 259.400 205.400 259.288 210.688 L 259.177 215.977 253.888 216.088 L 248.600 216.200 248.493 226.888 L 248.387 237.577 243.093 237.688 L 237.800 237.800 237.688 243.100 L 237.577 248.400 232.400 248.400 L 227.223 248.400 227.112 243.100 L 227.000 237.800 221.712 237.688 L 216.423 237.577 216.312 232.288 L 216.200 227.000 210.900 226.888 L 205.600 226.777 205.600 215.977 L 205.600 205.177 210.900 205.288 L 216.200 205.400 216.312 210.700 L 216.423 216.000 227.000 216.000 L 237.577 216.000 237.688 210.700 L 237.800 205.400 243.088 205.288 L 248.377 205.177 248.488 199.888 L 248.600 194.600 254.100 194.489 L 259.600 194.377 259.600 189.232 L 259.600 184.087 270.411 183.792 L 281.223 183.498 281.111 178.249 L 281.000 173.000 270.
300 172.893 L 259.600 172.787 259.600 167.393 L 259.600 162.000 194.867 162.000 C 159.263 162.000,130.013 162.120,129.867 162.267 M183.600 200.000 L 183.600 205.200 178.400 205.200 L 173.200 205.200 173.200 200.000 L 173.200 194.800 178.400 194.800 L 183.600 194.800 183.600 200.000 M13.282 216.296 C 14.758 216.373,17.278 216.373,18.882 216.297 C 20.487 216.221,19.280 216.158,16.200 216.158 C 13.120 216.157,11.807 216.219,13.282 216.296 M380.882 216.296 C 382.358 216.373,384.878 216.373,386.482 216.297 C 388.087 216.221,386.880 216.158,383.800 216.158 C 380.720 216.157,379.407 216.219,380.882 216.296 M24.082 227.096 C 25.558 227.173,28.078 227.173,29.682 227.097 C 31.287 227.021,30.080 226.958,27.000 226.958 C 23.920 226.957,22.607 227.019,24.082 227.096 M370.082 227.096 C 371.558 227.173,374.078 227.173,375.682 227.097 C 377.287 227.021,376.080 226.958,373.000 226.958 C 369.920 226.957,368.607 227.019,370.082 227.096 M37.700 237.899 C 40.725 237.967,45.675 237.967,48.700 237.899 C 51.725 237.831,49.250 237.775,43.200 237.775 C 37.150 237.775,34.675 237.831,37.700 237.899 M272.882 237.896 C 274.358 237.973,276.878 237.973,278.482 237.897 C 280.087 237.821,278.880 237.758,275.800 237.758 C 272.720 237.757,271.407 237.819,272.882 237.896 M351.300 237.899 C 354.325 237.967,359.275 237.967,362.300 237.899 C 365.325 237.831,362.850 237.775,356.800 237.775 C 350.750 237.775,348.275 237.831,351.300 237.899 M183.600 243.200 L 183.600 248.400 178.400 248.400 L 173.200 248.400 173.200 243.200 L 173.200 238.000 178.400 238.000 L 183.600 238.000 183.600 243.200 M172.800 254.000 L 172.800 259.200 156.600 259.200 L 140.400 259.200 140.400 254.000 L 140.400 248.800 156.600 248.800 L 172.800 248.800 172.800 254.000 M270.000 254.000 L 270.000 259.200 254.000 259.200 L 238.000 259.200 238.000 254.000 L 238.000 248.800 254.000 248.800 L 270.000 248.800 270.000 254.000 M151.468 270.265 C 151.321 270.413,151.200 272.838,151.200 275.655 L 151.200 280.777 145.900 280.901 L 140.600 281.025 145.888 281.113 L 151.177 281.200 151.301 286.500 L 151.425 291.800 151.513 286.500 L 151.600 281.200 199.988 281.200 L 248.377 281.200 248.501 286.500 L 248.625 291.800 248.713 286.500 L 248.800 281.200 254.000 281.200 L 259.200 281.200 259.200 286.600 L 259.200 292.000 254.000 292.000 L 248.800 292.000 248.779 297.500 C 248.768 300.525,248.776 305.295,248.799 308.100 L 248.839 313.200 243.431 313.200 L 238.023 313.200 237.899 307.900 L 237.775 302.600 237.687 308.152 L 237.600 313.705 248.250 313.410 C 257.021 313.167,258.961 313.211,259.244 313.657 C 259.433 313.956,259.591 318.830,259.594 324.489 L 259.600 334.777 254.100 334.889 L 248.600 335.000 248.600 340.400 L 248.600 345.800 253.901 345.818 L 259.201 345.836 254.001 345.707 L 248.800 345.577 248.800 340.388 L 248.800 335.200 259.400 335.200 L 270.000 335.200 270.000 324.400 L 270.000 313.600 264.800 313.600 L 259.600 313.600 259.600 308.212 L 259.600 302.823 264.900 302.712 L 270.200 302.600 270.312 297.300 L 270.423 292.000 275.605 292.000 L 280.787 292.000 280.903 302.500 L 281.020 313.000 281.010 302.400 L 281.000 291.800 275.832 291.688 C 272.663 291.619,270.505 291.735,270.252 291.988 C 270.012 292.228,267.707 292.400,264.731 292.400 L 259.622 292.400 259.511 286.700 L 259.400 281.000 254.112 280.888 L 248.823 280.777 248.712 275.488 L 248.600 270.200 200.168 270.098 C 173.531 270.043,151.616 270.118,151.468 270.265 M248.400 275.600 L 248.400 280.800 200.000 280.800 L 151.600 280.800 151.600 275.600 L 151.600 270.400 200.000 270.400 L 248.400 270.400 248.400 275.600 M302.400 275.800 L 302.400 281.200 297.200 281.200 L 292.000 281.200 292.000 275.800 L 292.000 270.400 297.200 270.400 L 302.400 270.400 302.400 275.800 M86.591 313.600 C 86.591 331.530,86.640 338.865,86.700 329.900 C 86.760 320.935,86.760 306.265,86.700 297.300 C 86.640 288.335,86.591 295.670,86.591 313.600 M129.600 286.388 L 129.600 291.577 124.300 291.688 L 119.000 291.800 118.894 302.700 L 118.787 313.600 113.594 313.600 L 108.400 313.600 108.400 324.200 L 108.400 334.800 113.600 334.800 L 118.800 334.800 118.800 340.404 L 118.800 346.009 135.100 345.904 L 151.400 345.800 151.400 340.400 L 151.400 335.000 145.893 334.889 L 140.387 334.777 140.493 324.089 L 140.600 313.400 151.500 313.543 L 162.400 313.686 162.313 308.143 L 162.225 302.600 162.101 307.900 L 161.977 313.200 156.569 313.200 L 151.161 313.200 151.201 308.100 C 151.224 305.295,151.232 300.525,151.221 297.500 L 151.200 292.000 145.800 292.000 L 140.400 292.000 140.400 286.600 L 140.400 281.200 135.000 281.200 L 129.600 281.200 129.600 286.388 M129.800 302.800 L 129.800 313.400 124.500 313.512 L 119.200 313.623 119.200 302.800 L 119.200 291.977 124.500 292.088 L 129.800 292.200 129.800 302.800 M151.200 340.400 L 151.200 345.600 135.200 345.600 L 119.200 345.600 119.200 340.400 L 119.200 335.200 135.200 335.200 L 151.200 335.200 151.200 340.400 M97.106 349.499 C 97.295 356.448,97.454 357.128,97.528 351.300 C 97.568 348.165,97.465 345.600,97.300 345.599 C 97.135 345.599,97.048 347.354,97.106 349.499 M108.093 356.900 L 108.000 367.600 113.500 367.513 L 119.000 367.425 113.707 367.301 L 108.413 367.177 108.300 356.688 L 108.186 346.200 108.093 356.900 " stroke="none" fill="#8b431c" fill-rule="evenodd"></path><path id="path1" d="M151.600 16.200 L 151.600 21.600 200.000 21.600 L 248.400 21.600 248.400 16.200 L 248.400 10.800 200.000 10.800 L 151.600 10.800 151.600 16.200 M119.200 32.400 L 119.200 43.209 135.300 43.105 L 151.400 43.000 151.400 32.400 L 151.400 21.800 135.300 21.695 L 119.200 21.591 119.200 32.400 M248.800 32.395 L 248.800 43.200 265.000 43.200 L 281.200 43.200 281.200 48.600 L 281.200 54.000 289.336 54.000 C 293.810 54.000,301.005 54.118,305.325 54.263 L 313.178 54.526 313.289 59.763 L 313.400 65.000 318.688 65.112 L 323.977 65.223 324.088 70.512 L 324.200 75.800 329.493 75.912 L 334.787 76.023 334.893 86.712 L 335.000 97.400 345.688 97.507 L 356.377 97.613 356.488 102.907 L 356.600 108.200 361.893 108.312 L 367.187 108.423 367.293 119.112 L 367.400 129.800 372.700 129.912 L 378.000 130.023 378.000 167.812 L 378.000 205.600 372.800 205.600 L 367.600 205.600 367.600 194.800 L 367.600 184.000 362.200 184.000 L 356.800 184.000 356.800 178.600 L 356.800 173.200 340.600 173.200 L 324.400 173.200 324.400 167.800 L 324.400 162.400 313.600 162.400 L 302.800 162.400 302.800 157.004 L 302.800 151.609 286.500 151.504 L 270.200 151.400 270.088 146.100 L 269.977 140.800 205.400 140.800 L 140.823 140.800 140.712 146.100 L 140.600 151.400 119.112 151.503 L 97.623 151.607 97.512 156.903 L 97.400 162.200 86.712 162.307 L 76.023 162.413 75.912 167.707 L 75.800 173.000 59.712 173.105 L 43.623 173.209 43.512 178.505 L 43.400 183.800 38.107 183.912 L 32.813 184.023 32.707 194.712 L 32.600 205.400 27.100 205.511 L 21.600 205.623 21.600 167.811 L 21.600 130.000 16.200 130.000 L 10.800 130.000 10.800 173.000 L 10.800 216.000 16.200 216.000 L 21.600 216.000 21.600 221.400 L 21.600 226.800 27.000 226.800 L 32.400 226.800 32.400 232.200 L 32.400 237.600 43.200 237.600 L 54.000 237.600 54.000 242.997 L 54.000 248.394 81.100 248.497 L 108.200 248.600 108.307 259.300 L 108.413 270.000 113.600 270.000 L 118.787 270.000 118.893 259.300 L 119.000 248.600 124.300 248.488 L 129.600 248.377 129.600 243.188 L 129.600 238.000 124.200 238.000 L 118.800 238.000 118.800 232.600 L 118.800 227.200 113.396 227.200 L 107.991 227.200 108.096 210.900 L 108.200 194.600 113.600 194.600 L 119.000 194.600 119.112 199.893 L 119.223 205.187 129.912 205.293 L 140.600 205.400 140.712 210.688 L 140.823 215.977 146.112 216.088 L 151.400 216.200 151.511 221.700 L 151.623 227.200 156.811 227.200 L 162.000 227.200 162.000 232.400 L 162.000 237.600 167.388 237.600 L 172.777 237.600 172.888 232.300 L 173.000 227.000 183.700 226.893 L 194.400 226.787 194.400 215.982 L 194.400 205.177 189.100 205.288 L 183.800 205.400 183.688 210.700 L 183.577 216.000 178.400 216.000 L 173.223 216.000 173.112 210.700 L 173.000 205.400 167.500 205.289 L 162.000 205.177 162.000 200.034 L 162.000 194.891 151.411 194.597 L 140.823 194.302 140.711 189.051 L 140.600 183.800 129.688 183.694 L 118.777 183.587 118.888 178.294 L 119.000 173.000 124.288 172.888 L 129.577 172.777 129.688 167.488 L 129.800 162.200 194.700 162.099 L 259.600 161.998 259.600 167.392 L 259.600 172.787 270.300 172.893 L 281.000 173.000 281.111 178.249 L 281.223 183.498 270.411 183.792 L 259.600 184.087 259.600 189.232 L 259.600 194.377 254.100 194.489 L 248.600 194.600 248.488 199.888 L 248.377 205.177 243.088 205.288 L 237.800 205.400 237.688 210.700 L 237.577 216.000 227.000 216.000 L 216.423 216.000 216.312 210.700 L 216.200 205.400 210.900 205.288 L 205.600 205.177 205.600 215.977 L 205.600 226.777 210.900 226.888 L 216.200 227.000 216.312 232.288 L 216.423 237.577 221.712 237.688 L 227.000 237.800 227.112 243.100 L 227.223 248.400 232.400 248.400 L 237.577 248.400 237.688 243.100 L 237.800 237.800 243.093 237.688 L 248.387 237.577 248.493 226.888 L 248.600 216.200 253.888 216.088 L 259.177 215.977 259.288 210.688 L 259.400 205.400 270.088 205.293 L 280.777 205.187 280.888 199.893 L 281.000 194.600 286.400 194.600 L 291.800 194.600 291.904 210.900 L 292.009 227.200 286.604 227.200 L 281.200 227.200 281.200 232.600 L 281.200 238.000 275.800 238.000 L 270.400 238.000 270.400 243.188 L 270.400 248.377 275.700 248.488 L 281.000 248.600 281.107 259.300 L 281.213 270.000 286.400 270.000 L 291.587 270.000 291.693 259.300 L 291.800 248.600 318.900 248.497 L 346.000 248.394 346.000 242.997 L 346.000 237.600 356.800 237.600 L 367.600 237.600 367.600 232.200 L 367.600 226.800 373.000 226.800 L 378.400 226.800 378.400 221.400 L 378.400 216.000 383.800 216.000 L 389.200 216.000 389.200 173.000 L 389.200 130.000 383.800 130.000 L 378.400 130.000 378.400 119.200 L 378.400 108.400 373.000 108.400 L 367.600 108.400 367.600 103.000 L 367.600 97.600 362.200 97.600 L 356.800 97.600 356.800 86.806 L 356.800 76.013 345.900 75.906 L 335.000 75.800 334.888 70.512 L 334.777 65.223 
329.488 65.112 L 324.200 65.000 324.089 59.500 L 323.977 54.000 318.589 54.000 L 313.200 54.000 313.200 48.600 L 313.200 43.200 297.207 43.200 L 281.213 43.200 281.107 32.500 L 281.000 21.800 264.900 21.695 L 248.800 21.591 248.800 32.395 M86.800 48.600 L 86.800 54.000 102.800 54.000 L 118.800 54.000 118.800 48.600 L 118.800 43.200 102.800 43.200 L 86.800 43.200 86.800 48.600 M76.000 59.388 L 76.000 64.800 81.212 64.800 L 86.423 64.800 86.312 59.500 L 86.200 54.200 81.100 54.088 L 76.000 53.976 76.000 59.388 M65.200 70.400 L 65.200 75.600 70.400 75.600 L 75.600 75.600 75.600 70.400 L 75.600 65.200 70.400 65.200 L 65.200 65.200 65.200 70.400 M43.600 86.600 L 43.600 97.200 54.200 97.200 L 64.800 97.200 64.800 86.600 L 64.800 76.000 54.200 76.000 L 43.600 76.000 43.600 86.600 M32.400 102.800 L 32.400 108.000 37.800 108.000 L 43.200 108.000 43.200 102.800 L 43.200 97.600 37.800 97.600 L 32.400 97.600 32.400 102.800 M21.600 119.000 L 21.600 129.600 27.000 129.600 L 32.400 129.600 32.400 119.000 L 32.400 108.400 27.000 108.400 L 21.600 108.400 21.600 119.000 M173.200 243.200 L 173.200 248.400 178.400 248.400 L 183.600 248.400 183.600 243.200 L 183.600 238.000 178.400 238.000 L 173.200 238.000 173.200 243.200 M140.400 254.000 L 140.400 259.200 156.600 259.200 L 172.800 259.200 172.800 254.000 L 172.800 248.800 156.600 248.800 L 140.400 248.800 140.400 254.000 M238.000 254.000 L 238.000 259.200 254.000 259.200 L 270.000 259.200 270.000 254.000 L 270.000 248.800 254.000 248.800 L 238.000 248.800 238.000 254.000 M97.600 275.812 L 97.600 281.224 102.700 281.112 L 107.800 281.000 107.912 275.700 L 108.023 270.400 102.812 270.400 L 97.600 270.400 97.600 275.812 M151.600 275.600 L 151.600 280.800 200.000 280.800 L 248.400 280.800 248.400 275.600 L 248.400 270.400 200.000 270.400 L 151.600 270.400 151.600 275.600 M292.000 275.800 L 292.000 281.200 297.200 281.200 L 302.400 281.200 302.400 275.800 L 302.400 270.400 297.200 270.400 L 292.000 270.400 292.000 275.800 M86.800 313.600 L 86.800 346.024 91.900 345.912 L 97.000 345.800 97.000 313.600 L 97.000 281.400 91.900 281.288 L 86.800 281.176 86.800 313.600 M140.400 286.600 L 140.400 292.000 145.800 292.000 L 151.200 292.000 151.200 286.600 L 151.200 281.200 145.800 281.200 L 140.400 281.200 140.400 286.600 M248.800 286.600 L 248.800 292.000 254.000 292.000 L 259.200 292.000 259.200 286.600 L 259.200 281.200 254.000 281.200 L 248.800 281.200 248.800 286.600 M302.800 318.800 L 302.800 346.000 308.000 346.000 L 313.200 346.000 313.200 318.800 L 313.200 291.600 308.000 291.600 L 302.800 291.600 302.800 318.800 M119.200 302.800 L 119.200 313.623 124.500 313.512 L 129.800 313.400 129.800 302.800 L 129.800 292.200 124.500 292.088 L 119.200 291.977 119.200 302.800 M270.312 297.300 L 270.200 302.600 264.900 302.712 L 259.600 302.823 259.600 308.212 L 259.600 313.600 264.800 313.600 L 270.000 313.600 270.000 324.400 L 270.000 335.200 259.400 335.200 L 248.800 335.200 248.800 340.337 L 248.800 345.473 256.664 345.737 C 260.990 345.881,268.162 346.000,272.604 346.000 L 280.678 346.000 280.964 336.900 C 281.121 331.895,281.120 319.745,280.963 309.900 L 280.677 292.000 275.550 292.000 L 270.423 292.000 270.312 297.300 M151.467 303.067 C 151.320 303.213,151.200 305.553,151.200 308.267 L 151.200 313.200 156.600 313.200 L 162.000 313.200 162.000 308.000 L 162.000 302.800 156.867 302.800 C 154.043 302.800,151.613 302.920,151.467 303.067 M238.000 307.988 L 238.000 313.200 243.412 313.200 L 248.824 313.200 248.712 308.100 L 248.600 303.000 243.300 302.888 L 238.000 302.777 238.000 307.988 M119.200 340.400 L 119.200 345.600 135.200 345.600 L 151.200 345.600 151.200 340.400 L 151.200 335.200 135.200 335.200 L 119.200 335.200 119.200 340.400 M97.600 351.400 L 97.600 356.800 102.800 356.800 L 108.000 356.800 108.000 351.400 L 108.000 346.000 102.800 346.000 L 97.600 346.000 97.600 351.400 M291.688 351.300 L 291.800 356.600 297.100 356.712 L 302.400 356.823 302.400 351.412 L 302.400 346.000 296.988 346.000 L 291.577 346.000 291.688 351.300 M108.400 361.946 L 108.400 367.106 118.832 367.401 C 125.322 367.585,129.408 367.552,129.645 367.315 C 129.858 367.102,129.976 364.746,129.913 361.967 L 129.800 357.000 119.100 356.893 L 108.400 356.787 108.400 361.946 M270.400 362.212 L 270.400 367.623 275.700 367.512 L 281.000 367.400 281.112 362.100 L 281.223 356.800 275.812 356.800 L 270.400 356.800 270.400 362.212 M140.580 368.107 C 140.473 368.386,140.434 373.201,140.493 378.807 L 140.600 389.000 205.300 389.101 L 270.000 389.202 270.000 378.401 L 270.000 367.600 205.387 367.600 C 153.598 367.600,140.736 367.701,140.580 368.107 " stroke="none" fill="#1d0e04" fill-rule="evenodd"></path><path id="path2" d="M175.700 10.700 C 189.065 10.758,210.935 10.758,224.300 10.700 C 237.665 10.642,226.730 10.594,200.000 10.594 C 173.270 10.594,162.335 10.642,175.700 10.700 M127.100 21.500 C 131.555 21.564,138.845 21.564,143.300 21.500 C 147.755 21.435,144.110 21.382,135.200 21.382 C 126.290 21.382,122.645 21.435,127.100 21.500 M256.700 21.500 C 261.155 21.564,268.445 21.564,272.900 21.500 C 277.355 21.435,273.710 21.382,264.800 21.382 C 255.890 21.382,252.245 21.435,256.700 21.500 M281.200 32.167 L 281.200 42.757 286.607 42.878 L 292.014 43.000 291.907 32.400 L 291.800 21.800 286.500 21.688 L 281.200 21.577 281.200 32.167 M108.300 54.300 L 97.200 54.413 97.200 59.595 L 97.200 64.777 91.900 64.888 L 86.600 65.000 86.497 86.500 L 86.393 108.000 91.797 108.000 L 97.200 108.000 97.200 102.600 L 97.200 97.200 108.000 97.200 L 118.800 97.200 118.800 91.800 L 118.800 86.400 129.600 86.400 L 140.400 86.400 140.400 75.600 L 140.400 64.800 145.800 64.800 L 151.200 64.800 151.200 59.400 L 151.200 54.000 135.300 54.093 C 126.555 54.145,114.405 54.238,108.300 54.300 M151.600 75.600 L 151.600 86.400 156.800 86.400 L 162.000 86.400 162.000 75.600 L 162.000 64.800 156.800 64.800 L 151.600 64.800 151.600 75.600 M65.078 97.455 C 64.925 97.608,64.800 100.043,64.800 102.867 L 64.800 108.000 70.212 108.000 L 75.623 108.000 75.512 102.700 L 75.400 97.400 70.378 97.289 C 67.616 97.227,65.231 97.302,65.078 97.455 M32.157 102.800 C 32.157 105.770,32.220 106.985,32.297 105.500 C 32.374 104.015,32.374 101.585,32.297 100.100 C 32.220 98.615,32.157 99.830,32.157 102.800 M367.757 102.800 C 367.757 105.770,367.820 106.985,367.897 105.500 C 367.974 104.015,367.974 101.585,367.897 100.100 C 367.820 98.615,367.757 99.830,367.757 102.800 M21.375 119.000 C 21.375 124.940,21.431 127.426,21.499 124.524 C 21.567 121.622,21.567 116.762,21.499 113.724 C 21.431 110.686,21.375 113.060,21.375 119.000 M378.575 119.000 C 378.575 124.940,378.631 127.426,378.699 124.524 C 378.767 121.622,378.767 116.762,378.699 113.724 C 378.631 110.686,378.575 113.060,378.575 119.000 M10.593 173.200 C 10.593 197.070,10.641 206.835,10.700 194.900 C 10.759 182.965,10.759 163.435,10.700 151.500 C 10.641 139.565,10.593 149.330,10.593 173.200 M389.393 173.200 C 389.393 197.070,389.441 206.835,389.500 194.900 C 389.559 182.965,389.559 163.435,389.500 151.500 C 389.441 139.565,389.393 149.330,389.393 173.200 M173.200 200.000 L 173.200 205.200 178.400 205.200 L 183.600 205.200 183.600 200.000 L 183.600 194.800 178.400 194.800 L 173.200 194.800 173.200 200.000 M194.800 216.400 L 194.800 227.200 189.400 227.200 L 184.000 227.200 184.000 232.391 L 184.000 237.582 200.100 237.691 L 216.200 237.800 216.078 232.500 L 215.957 227.200 210.578 227.200 L 205.200 227.200 205.200 216.400 L 205.200 205.600 200.000 205.600 L 194.800 205.600 194.800 216.400 M21.288 221.500 L 21.200 226.800 16.000 226.800 L 10.800 226.800 10.800 232.200 L 10.800 237.600 5.400 237.600 L 0.000 237.600 0.000 296.988 L 0.000 356.377 5.300 356.488 L 10.600 356.600 10.712 361.900 L 10.823 367.200 15.932 367.200 C 22.308 367.200,22.000 366.901,22.000 373.080 L 22.000 378.000 26.920 378.000 C 33.100 378.000,32.800 377.690,32.800 384.080 L 32.800 389.200 38.200 389.200 L 43.600 389.200 43.600 394.600 L 43.600 400.000 199.988 400.000 L 356.377 400.000 356.488 394.700 L 356.600 389.400 361.900 389.288 L 367.200 389.177 367.200 384.068 C 367.200 377.692,366.901 378.000,373.080 378.000 L 378.000 378.000 378.000 373.080 C 378.000 366.901,377.692 367.200,384.068 367.200 L 389.177 367.200 389.288 361.900 L 389.400 356.600 394.700 356.488 L 400.000 356.377 400.000 302.388 L 400.000 248.400 394.600 248.400 L 389.200 248.400 389.200 243.200 L 389.200 238.000 394.600 238.000 L 400.000 238.000 400.000 232.400 L 400.000 226.800 389.412 226.800 L 378.823 226.800 378.699 221.500 C 378.631 218.585,378.535 221.015,378.487 226.900 L 378.400 237.600 373.212 237.600 L 368.023 237.600 367.899 232.300 C 367.831 229.385,367.735 231.815,367.687 237.700 L 367.600 248.400 357.012 248.400 L 346.423 248.400 346.299 243.100 L 346.175 237.800 346.087 243.300 L 346.000 248.800 319.000 248.800 L 292.000 248.800 292.087 259.500 C 292.135 265.385,292.231 267.815,292.299 264.900 L 292.423 259.600 297.364 259.600 L 302.305 259.600 302.600 270.400 L 302.895 281.200 308.247 281.200 L 313.600 281.200 313.600 313.600 L 313.600 346.000 308.200 346.000 L 302.800 346.000 302.800 351.400 L 302.800 356.800 297.412 356.800 L 292.023 356.800 291.912 362.100 L 291.800 367.400 281.100 367.507 L 270.400 367.613 270.400 378.407 L 270.400 389.200 200.207 389.200 L 130.013 389.200 129.907 378.500 L 129.800 367.800 118.900 367.694 L 108.000 367.587 108.000 362.194 L 108.000 356.800 102.600 356.800 L 97.200 356.800 97.200 351.400 L 97.200 346.000 91.800 346.000 L 86.400 346.000 86.400 313.612 L 86.400 281.223 91.700 281.112 L 97.000 281.000 97.200 275.600 C 97.310 272.630,97.346 267.725,97.279 264.700 L 97.158 259.200 91.979 259.200 L 86.800 259.200 86.800 254.000 L 86.800 248.800 70.400 248.800 L 54.000 248.800 54.000 243.400 L 54.000 238.000 43.200 238.000 L 32.400 238.000 32.400 232.600 L 32.400 227.200 27.011 227.200 L 21.623 227.200 21.499 221.700 L 21.375 216.200 21.288 221.500 M107.757 254.000 C 107.757 256.970,107.820 258.185,107.897 256.700 C 107.974 255.215,107.974 252.785,107.
897 251.300 C 107.820 249.815,107.757 251.030,107.757 254.000 M129.782 254.099 L 129.800 259.400 135.000 259.417 L 140.200 259.435 135.112 259.306 L 130.023 259.177 129.893 253.988 L 129.764 248.799 129.782 254.099 M270.400 264.788 L 270.400 280.777 275.700 280.888 L 281.000 281.000 281.084 286.400 C 281.131 289.370,281.176 296.705,281.184 302.700 L 281.200 313.600 286.607 313.600 L 292.013 313.600 291.907 324.300 L 291.800 335.000 286.500 335.112 L 281.200 335.223 281.200 340.412 L 281.200 345.600 291.800 345.600 L 302.400 345.600 302.400 318.800 L 302.400 292.000 297.247 292.000 L 292.095 292.000 291.800 281.200 L 291.505 270.400 286.153 270.400 L 280.800 270.400 280.800 259.600 L 280.800 248.800 275.600 248.800 L 270.400 248.800 270.400 264.788 M102.900 281.099 L 97.600 281.223 97.600 286.412 L 97.600 291.600 102.778 291.600 L 107.957 291.600 108.078 286.199 C 108.145 283.229,108.200 280.838,108.200 280.887 C 108.200 280.935,105.815 281.031,102.900 281.099 M97.396 319.000 L 97.400 345.800 102.863 346.000 C 105.868 346.110,108.242 346.065,108.139 345.900 C 108.037 345.735,105.625 345.600,102.779 345.600 L 97.606 345.600 97.499 318.900 L 97.392 292.200 97.396 319.000 M259.522 351.399 L 259.643 356.800 200.122 356.799 L 140.600 356.799 140.722 361.999 L 140.844 367.200 205.411 367.200 L 269.977 367.200 270.088 361.900 L 270.200 356.600 275.500 356.488 L 280.800 356.377 280.800 351.188 L 280.800 346.000 270.100 345.999 L 259.400 345.999 259.522 351.399 M113.724 356.699 C 116.762 356.767,121.622 356.767,124.524 356.699 C 127.426 356.631,124.940 356.575,119.000 356.575 C 113.060 356.575,110.686 356.631,113.724 356.699 " stroke="none" fill="#f6af4c" fill-rule="evenodd"></path><path id="path3" d="M43.200 5.400 L 43.200 10.800 37.800 10.800 L 32.400 10.800 32.400 16.200 L 32.400 21.600 27.000 21.600 L 21.600 21.600 21.600 27.000 L 21.600 32.400 16.200 32.400 L 10.800 32.400 10.800 37.800 L 10.800 43.200 5.400 43.200 L 0.000 43.200 0.000 140.400 L 0.000 237.600 5.400 237.600 L 10.800 237.600 10.800 232.200 L 10.800 226.800 16.000 226.800 L 21.200 226.800 21.200 221.600 L 21.200 216.400 15.798 216.400 L 10.396 216.400 10.498 173.100 L 10.600 129.800 15.893 129.688 L 21.187 129.577 21.293 118.888 L 21.400 108.200 26.688 108.088 L 31.977 107.977 32.088 102.688 L 32.200 97.400 37.600 97.200 L 43.000 97.000 43.107 86.307 L 43.213 75.613 53.907 75.507 L 64.600 75.400 64.712 70.112 L 64.823 64.823 70.112 64.712 L 75.400 64.600 75.512 59.312 L 75.623 54.023 80.912 53.912 L 86.200 53.800 86.312 48.505 L 86.423 43.209 102.512 43.105 L 118.600 43.000 118.800 32.200 L 119.000 21.400 135.088 21.295 L 151.177 21.191 151.288 15.895 L 151.400 10.600 200.000 10.600 L 248.600 10.600 248.711 15.839 L 248.822 21.078 269.984 21.299 C 281.624 21.420,291.339 21.638,291.573 21.783 C 291.858 21.960,292.000 25.563,292.000 32.624 L 292.000 43.200 302.788 43.200 L 313.577 43.200 313.688 48.500 L 313.800 53.800 319.088 53.912 L 324.377 54.023 324.488 59.312 L 324.600 64.600 329.888 64.712 L 335.177 64.823 335.288 70.112 L 335.400 75.400 346.093 75.507 L 356.787 75.613 356.893 86.307 L 357.000 97.000 362.400 97.200 L 367.800 97.400 367.912 102.688 L 368.023 107.977 373.312 108.088 L 378.600 108.200 378.707 118.888 L 378.813 129.577 384.107 129.688 L 389.400 129.800 389.502 173.100 L 389.604 216.400 384.202 216.400 L 378.800 216.400 378.800 221.600 L 378.800 226.800 389.400 226.800 L 400.000 226.800 400.000 135.000 L 400.000 43.200 394.600 43.200 L 389.200 43.200 389.200 37.800 L 389.200 32.400 383.800 32.400 L 378.400 32.400 378.400 27.000 L 378.400 21.600 373.000 21.600 L 367.600 21.600 367.600 16.200 L 367.600 10.800 362.200 10.800 L 356.800 10.800 356.800 5.400 L 356.800 0.000 200.000 0.000 L 43.200 0.000 43.200 5.400 M108.400 210.800 L 108.400 226.800 113.589 226.800 L 118.777 226.800 118.923 232.100 C 119.004 235.015,118.988 232.675,118.889 226.900 L 118.709 216.400 129.655 216.401 L 140.600 216.401 140.478 211.001 L 140.357 205.600 129.578 205.600 L 118.800 205.600 118.800 200.200 L 118.800 194.800 113.600 194.800 L 108.400 194.800 108.400 210.800 M281.200 200.200 L 281.200 205.600 270.422 205.600 L 259.643 205.600 259.522 211.001 L 259.400 216.401 270.345 216.401 L 281.291 216.400 281.111 226.900 C 281.012 232.675,280.996 235.015,281.077 232.100 L 281.223 226.800 286.411 226.800 L 291.600 226.800 291.600 210.800 L 291.600 194.800 286.400 194.800 L 281.200 194.800 281.200 200.200 M151.287 232.500 L 151.200 238.000 156.700 237.913 L 162.200 237.825 156.912 237.701 L 151.623 237.577 151.499 232.288 L 151.375 227.000 151.287 232.500 M183.913 238.100 L 184.095 248.800 178.647 248.800 L 173.200 248.800 173.200 254.203 L 173.200 259.607 151.500 259.503 L 129.800 259.400 129.688 254.100 L 129.577 248.800 124.395 248.800 L 119.213 248.800 119.107 259.500 L 119.000 270.200 113.749 270.311 L 108.498 270.423 108.203 281.011 L 107.909 291.600 102.755 291.600 L 97.600 291.600 97.600 318.588 L 97.600 345.577 102.900 345.688 L 108.200 345.800 108.311 351.035 L 108.422 356.270 124.311 356.535 C 133.050 356.680,167.070 356.799,199.912 356.799 L 259.623 356.800 259.512 351.500 L 259.400 346.200 253.889 346.089 L 248.378 345.977 248.489 340.489 L 248.600 335.000 254.100 334.889 L 259.600 334.777 259.594 324.489 C 259.591 318.830,259.441 313.969,259.263 313.688 C 259.020 313.305,257.650 313.204,253.849 313.288 L 248.761 313.400 248.680 324.200 L 248.600 335.000 243.300 335.112 L 238.000 335.223 237.999 327.112 C 237.998 322.650,237.880 315.355,237.735 310.900 L 237.473 302.800 243.137 302.800 L 248.800 302.800 248.712 297.100 L 248.625 291.400 248.501 296.900 L 248.377 302.400 243.189 302.400 L 238.000 302.400 238.000 291.800 L 238.000 281.200 232.500 281.200 L 227.000 281.200 227.000 291.900 L 227.000 302.600 200.000 302.600 L 173.000 302.600 173.000 291.900 L 173.000 281.200 167.500 281.200 L 162.000 281.200 162.000 291.800 L 162.000 302.400 156.811 302.400 L 151.623 302.400 151.499 296.900 L 151.375 291.400 151.288 297.100 L 151.200 302.800 156.863 302.800 L 162.527 302.800 162.265 310.900 C 162.120 315.355,162.002 322.650,162.001 327.112 L 162.000 335.223 156.700 335.112 L 151.400 335.000 151.319 324.200 L 151.238 313.400 145.919 313.400 L 140.600 313.400 140.493 324.089 L 140.387 334.777 145.893 334.889 L 151.400 335.000 151.511 340.500 L 151.623 346.000 135.211 346.000 L 118.800 346.000 118.800 340.400 L 118.800 334.800 113.600 334.800 L 108.400 334.800 108.400 324.200 L 108.400 313.600 113.594 313.600 L 118.787 313.600 118.894 302.700 L 119.000 291.800 124.300 291.688 L 129.600 291.577 129.600 286.436 L 129.600 281.295 140.389 281.000 L 151.177 280.706 151.289 275.453 L 151.400 270.200 200.100 270.098 L 248.800 269.997 248.800 275.398 L 248.800 280.800 254.200 280.800 L 259.600 280.800 259.600 286.600 L 259.600 292.400 264.776 292.400 C 267.796 292.400,270.056 292.233,270.200 292.000 C 270.345 291.765,272.675 291.600,275.835 291.600 L 281.223 291.600 281.112 286.300 L 281.000 281.000 275.700 280.888 L 270.400 280.777 270.400 270.188 L 270.400 259.600 254.000 259.600 L 237.600 259.600 237.600 254.200 L 237.600 248.800 232.200 248.800 L 226.800 248.800 226.800 243.463 L 226.800 238.127 218.700 237.865 C 214.245 237.720,204.620 237.602,197.312 237.601 L 184.023 237.600 183.877 232.500 C 183.797 229.695,183.813 232.215,183.913 238.100 M368.000 232.400 L 368.000 237.600 373.200 237.600 L 378.400 237.600 378.400 232.400 L 378.400 227.200 373.200 227.200 L 368.000 227.200 368.000 232.400 M134.988 237.894 L 140.377 238.022 140.506 243.111 L 140.635 248.200 140.617 243.000 L 140.600 237.800 135.099 237.782 L 129.599 237.765 134.988 237.894 M270.158 243.000 C 270.158 246.080,270.221 247.287,270.297 245.682 C 270.373 244.078,270.373 241.558,270.296 240.082 C 270.219 238.607,270.157 239.920,270.158 243.000 M346.400 243.200 L 346.400 248.400 357.000 248.400 L 367.600 248.400 367.600 243.200 L 367.600 238.000 357.000 238.000 L 346.400 238.000 346.400 243.200 M389.200 243.200 L 389.200 248.400 394.600 248.400 L 400.000 248.400 400.000 243.200 L 400.000 238.000 394.600 238.000 L 389.200 238.000 389.200 243.200 M86.800 254.000 L 86.800 259.200 92.000 259.200 L 97.200 259.200 97.200 264.600 L 97.200 270.000 102.600 270.000 L 108.000 270.000 108.000 267.264 C 108.000 265.760,107.881 260.990,107.737 256.664 L 107.473 248.800 97.137 248.800 L 86.800 248.800 86.800 254.000 M292.400 264.800 L 292.400 270.000 297.400 270.000 L 302.400 270.000 302.400 264.800 L 302.400 259.600 297.400 259.600 L 292.400 259.600 292.400 264.800 M227.000 324.400 L 227.000 335.000 200.000 335.000 L 173.000 335.000 172.893 324.807 C 172.834 319.201,172.874 314.384,172.981 314.104 C 173.138 313.697,178.580 313.615,200.089 313.697 L 227.000 313.800 227.000 324.400 M1.600 356.666 C 5.927 356.957,10.711 356.976,10.540 356.700 C 10.437 356.535,7.978 356.432,5.076 356.472 C 2.174 356.512,0.610 356.599,1.600 356.666 M389.460 356.700 C 389.358 356.865,390.922 356.952,392.937 356.893 C 399.553 356.701,400.287 356.545,394.924 356.472 C 392.022 356.432,389.563 356.535,389.460 356.700 M16.000 367.582 L 21.400 367.800 21.512 373.088 L 21.623 378.377 26.912 378.488 L 32.200 378.600 32.418 384.000 L 32.636 389.400 32.718 384.180 C 32.820 377.671,33.129 378.000,26.920 378.000 L 22.000 378.000 22.000 373.080 C 22.000 366.871,22.329 367.180,15.820 367.282 L 10.600 367.364 16.000 367.582 M378.480 367.680 C 378.159 368.001,378.000 369.787,378.000 373.080 L 378.000 378.000 373.080 378.000 C 366.871 378.000,367.180 377.671,367.282 384.180 L 367.364 389.400 367.582 384.000 L 367.800 378.600 373.088 378.488 L 378.377 378.377 378.488 373.088 L 378.600 367.800 384.000 367.582 L 389.400 367.364 384.180 367.282 C 380.555 367.225,378.813 367.347,378.480 367.680 M43.107 392.899 C 43.300 399.617,43.455 400.279,43.528 394.700 C 43.568 391.675,43.465 389.200,43.300 389.199 C 43.135 389.199,43.048 390.864,43.107 392.899 M356.575 389.722 C 356.464 390.009,356.426 392.484,356.489 395.222 L 356.604 400.200 356.802 394.699 C 356.997 
389.278,356.970 388.691,356.575 389.722 " stroke="none" fill="#f4d79f" fill-rule="evenodd"></path><path id="path4" d="M0.000 21.600 L 0.000 43.200 5.400 43.200 L 10.800 43.200 10.800 37.800 L 10.800 32.400 16.200 32.400 L 21.600 32.400 21.600 27.000 L 21.600 21.600 27.000 21.600 L 32.400 21.600 32.400 16.200 L 32.400 10.800 37.800 10.800 L 43.200 10.800 43.200 5.400 L 43.200 0.000 21.600 0.000 L 0.000 0.000 0.000 21.600 M356.800 5.400 L 356.800 10.800 362.200 10.800 L 367.600 10.800 367.600 16.200 L 367.600 21.600 373.000 21.600 L 378.400 21.600 378.400 27.000 L 378.400 32.400 383.800 32.400 L 389.200 32.400 389.200 37.800 L 389.200 43.200 394.600 43.200 L 400.000 43.200 400.000 21.600 L 400.000 0.000 378.400 0.000 L 356.800 0.000 356.800 5.400 M118.937 224.264 C 119.081 228.590,119.200 233.357,119.200 234.858 L 119.200 237.587 129.900 237.693 L 140.600 237.800 140.712 243.100 L 140.823 248.400 156.812 248.400 L 172.800 248.400 172.800 243.200 L 172.800 238.000 162.000 238.000 L 151.200 238.000 151.200 227.200 L 151.200 216.400 134.937 216.400 L 118.673 216.400 118.937 224.264 M248.800 227.200 L 248.800 238.000 243.400 238.000 L 238.000 238.000 238.000 243.200 L 238.000 248.400 254.000 248.400 L 270.000 248.400 270.000 243.000 L 270.000 237.600 275.400 237.600 L 280.800 237.600 280.800 234.864 C 280.800 233.360,280.919 228.590,281.063 224.264 L 281.327 216.400 265.063 216.400 L 248.800 216.400 248.800 227.200 M173.200 232.400 L 173.200 237.600 178.400 237.600 L 183.600 237.600 183.600 232.400 L 183.600 227.200 178.400 227.200 L 173.200 227.200 173.200 232.400 M151.600 291.800 L 151.600 302.400 156.800 302.400 L 162.000 302.400 162.000 291.800 L 162.000 281.200 156.800 281.200 L 151.600 281.200 151.600 291.800 M172.981 281.704 C 172.874 281.984,172.834 286.801,172.893 292.407 L 173.000 302.600 200.000 302.600 L 227.000 302.600 227.000 292.000 L 227.000 281.400 200.089 281.297 C 178.580 281.215,173.138 281.297,172.981 281.704 M238.000 291.800 L 238.000 302.400 243.200 302.400 L 248.400 302.400 248.400 291.800 L 248.400 281.200 243.200 281.200 L 238.000 281.200 238.000 291.800 M151.380 314.107 C 151.273 314.386,151.234 319.201,151.293 324.807 L 151.400 335.000 156.700 335.112 L 162.000 335.223 162.000 324.412 L 162.000 313.600 156.787 313.600 C 152.949 313.600,151.524 313.734,151.380 314.107 M172.981 314.104 C 172.874 314.384,172.834 319.201,172.893 324.807 L 173.000 335.000 200.000 335.000 L 227.000 335.000 227.000 324.400 L 227.000 313.800 200.089 313.697 C 178.580 313.615,173.138 313.697,172.981 314.104 M238.000 324.400 L 238.000 335.223 243.300 335.112 L 248.600 335.000 248.600 324.400 L 248.600 313.800 243.300 313.688 L 238.000 313.577 238.000 324.400 M0.000 378.388 L 0.000 400.000 21.612 400.000 L 43.223 400.000 43.112 394.700 L 43.000 389.400 37.712 389.288 L 32.423 389.177 32.312 383.888 L 32.200 378.600 26.912 378.488 L 21.623 378.377 21.512 373.088 L 21.400 367.800 16.112 367.688 L 10.823 367.577 10.712 362.288 L 10.600 357.000 5.300 356.888 L 0.000 356.777 0.000 378.388 M389.467 357.067 C 389.320 357.213,389.200 359.638,389.200 362.455 L 389.200 367.577 383.900 367.688 L 378.600 367.800 378.488 373.088 L 378.377 378.377 373.088 378.488 L 367.800 378.600 367.688 383.888 L 367.577 389.177 362.288 389.288 L 357.000 389.400 356.888 394.700 L 356.777 400.000 378.388 400.000 L 400.000 400.000 400.000 378.400 L 400.000 356.800 394.867 356.800 C 392.043 356.800,389.613 356.920,389.467 357.067 " stroke="none" fill="#fcfcfc" fill-rule="evenodd"></path></g></svg>